<svg width="273" height="413" viewBox="0 0 273 413" fill="none" xmlns="http://www.w3.org/2000/svg">
<mask id="mask0_23_25" style="mask-type:luminance" maskUnits="userSpaceOnUse" x="0" y="0" width="273" height="413">
<path d="M272.4 0H0V412.4H272.4V0Z" fill="white"/>
</mask>
<g mask="url(#mask0_23_25)">
<mask id="mask1_23_25" style="mask-type:alpha" maskUnits="userSpaceOnUse" x="0" y="0" width="273" height="315">
<path d="M271.4 78.1L137 0.5L136.1 0L135.2 0.5L1.6 77.7L0.9 78.1L0 78.6V235.8L0.9 236.3L135.3 313.9L136.2 314.4L137.1 313.9L269.7 237.4L271.5 236.4L272.4 235.9V78.6L271.4 78.1ZM122.7 20.1L89.8 77H24.1L122.7 20.1ZM84.4 86.4L69 113.1L22.8 86.4H84.4ZM72.4 125.8L126.7 157.2L72.4 188.6L54.3 157.2L72.4 125.8ZM64.4 121.2L49 147.9L18.1 94.5L64.4 121.2ZM10.7 100.3L43.6 157.2L10.7 214.1V100.3ZM48.9 166.6L64.3 193.3L18.1 220L48.9 166.6ZM69 201.3L84.4 228H22.8L69 201.3ZM24.1 237.4H89.8L122.7 294.3L24.1 237.4ZM131.5 290.8L100.7 237.4H131.5V290.8ZM131.5 228H95.2L77.1 196.6L131.4 165.2V228H131.5ZM131.5 149.1L77.2 117.7L95.3 86.3H131.5V149.1ZM131.5 77H100.7L131.5 23.6V77ZM207.9 121.2L254.1 94.5L223.3 147.9L207.9 121.2ZM217.9 157.2L199.8 188.6L145.5 157.2L199.8 125.8L217.9 157.2ZM203.2 113.1L187.8 86.4H249.4L203.2 113.1ZM248.1 77H182.4L149.6 20.1L248.1 77ZM140.8 23.6L171.6 77H140.8V23.6ZM140.8 86.4H177L195.1 117.8L140.8 149.2V86.4ZM140.8 165.3L195.1 196.7L177 228H140.8V165.3ZM140.8 237.4H171.6L140.8 290.8V237.4ZM149.6 294.3L182.4 237.4H248.1L149.6 294.3ZM187.8 228L203.2 201.3L249.4 228H187.8ZM207.9 193.2L223.3 166.5L254.1 219.9L207.9 193.2ZM261.6 214.1L228.7 157.2L261.6 100.3V214.1Z" fill="black"/>
</mask>
<g mask="url(#mask1_23_25)">
<g filter="url(#filter0_f_23_25)">
<path d="M87.2 2H-3.59998V316H87.2V2Z" fill="#2D2926"/>
</g>
<g filter="url(#filter1_f_23_25)">
<path d="M187.2 0H87.2V318H187.2V0Z" fill="#FFCD00"/>
</g>
<g filter="url(#filter2_f_23_25)">
<path d="M278 2H187.2V316H278V2Z" fill="#C8102E"/>
</g>
</g>
<path d="M56.325 335.556H64.2937C67.5958 335.556 69.95 336.046 71.3562 337.025C72.7625 338.004 73.4656 339.41 73.4656 341.244C73.4656 342.244 73.2833 343.093 72.9187 343.791C72.5646 344.489 72.1115 345.041 71.5594 345.447C71.0177 345.853 70.4604 346.129 69.8875 346.275V346.431C70.5125 346.587 71.1323 346.848 71.7469 347.212C72.3719 347.567 72.8875 348.103 73.2937 348.822C73.7104 349.53 73.9187 350.494 73.9187 351.712C73.9187 353.098 73.5646 354.291 72.8562 355.291C72.1583 356.291 71.1583 357.061 69.8562 357.603C68.5542 358.134 67.0073 358.4 65.2156 358.4H56.325V335.556ZM62.4969 344.322H64.3562C65.3771 344.322 66.0958 344.114 66.5125 343.697C66.9292 343.27 67.1375 342.754 67.1375 342.15C67.1375 341.525 66.8979 341.051 66.4187 340.728C65.95 340.395 65.2208 340.228 64.2312 340.228H62.4969V344.322ZM62.4969 348.837V353.634H64.6687C65.7417 353.634 66.4917 353.405 66.9187 352.947C67.3458 352.478 67.5594 351.895 67.5594 351.197C67.5594 350.791 67.4656 350.41 67.2781 350.056C67.101 349.692 66.7937 349.4 66.3562 349.181C65.9187 348.952 65.3146 348.837 64.5437 348.837H62.4969ZM85.4969 340.384C87.2156 340.384 88.7 340.686 89.95 341.291C91.2 341.884 92.1635 342.78 92.8406 343.978C93.5177 345.176 93.8562 346.676 93.8562 348.478V351.197H82.9344C82.9865 352.124 83.3302 352.884 83.9656 353.478C84.6115 354.072 85.5594 354.369 86.8094 354.369C87.9135 354.369 88.924 354.259 89.8406 354.041C90.7677 353.822 91.7208 353.483 92.7 353.025V357.416C91.8458 357.864 90.9135 358.192 89.9031 358.4C88.8927 358.608 87.6167 358.712 86.075 358.712C84.2937 358.712 82.7 358.395 81.2937 357.759C79.8875 357.124 78.7781 356.14 77.9656 354.806C77.1635 353.473 76.7625 351.759 76.7625 349.666C76.7625 347.541 77.1271 345.796 77.8562 344.431C78.5854 343.056 79.6062 342.041 80.9187 341.384C82.2312 340.718 83.7573 340.384 85.4969 340.384ZM85.7156 344.541C84.9969 344.541 84.3927 344.77 83.9031 345.228C83.424 345.676 83.1427 346.384 83.0594 347.353H88.3094C88.299 346.832 88.1948 346.358 87.9969 345.931C87.799 345.504 87.5073 345.166 87.1219 344.916C86.7469 344.666 86.2781 344.541 85.7156 344.541ZM103.419 358.4H97.3094V334.087H103.419V358.4ZM113.7 366.087C111.19 366.087 109.252 365.666 107.887 364.822C106.533 363.989 105.856 362.785 105.856 361.212C105.856 360.16 106.184 359.291 106.841 358.603C107.497 357.916 108.481 357.421 109.794 357.119C109.252 356.89 108.778 356.52 108.372 356.009C107.976 355.499 107.778 354.994 107.778 354.494C107.778 353.942 107.929 353.457 108.231 353.041C108.533 352.614 109.164 352.108 110.122 351.525C109.205 351.119 108.481 350.483 107.95 349.619C107.429 348.754 107.169 347.702 107.169 346.462C107.169 345.181 107.46 344.087 108.044 343.181C108.637 342.275 109.497 341.582 110.622 341.103C111.757 340.624 113.137 340.384 114.762 340.384C114.981 340.384 115.315 340.405 115.762 340.447C116.21 340.478 116.664 340.52 117.122 340.572C117.58 340.614 117.934 340.655 118.184 340.697H124.356V343.65L121.934 344.541C122.101 344.843 122.226 345.171 122.309 345.525C122.393 345.879 122.434 346.254 122.434 346.65C122.434 348.556 121.762 350.035 120.419 351.087C119.085 352.14 117.091 352.666 114.434 352.666C113.778 352.666 113.257 352.624 112.872 352.541C112.799 352.676 112.742 352.811 112.7 352.947C112.669 353.072 112.653 353.192 112.653 353.306C112.653 353.546 112.794 353.739 113.075 353.884C113.367 354.02 113.716 354.114 114.122 354.166C114.539 354.218 114.934 354.244 115.309 354.244H118.247C120.236 354.244 121.726 354.66 122.716 355.494C123.705 356.327 124.2 357.582 124.2 359.259C124.2 361.416 123.278 363.093 121.434 364.291C119.601 365.489 117.023 366.087 113.7 366.087ZM113.997 362.275C114.736 362.275 115.481 362.207 116.231 362.072C116.981 361.947 117.611 361.739 118.122 361.447C118.632 361.155 118.887 360.77 118.887 360.291C118.887 359.926 118.736 359.65 118.434 359.462C118.132 359.285 117.742 359.166 117.262 359.103C116.783 359.041 116.278 359.009 115.747 359.009H113.372C112.934 359.009 112.533 359.077 112.169 359.212C111.815 359.358 111.533 359.551 111.325 359.791C111.117 360.03 111.012 360.301 111.012 360.603C111.012 361.103 111.283 361.504 111.825 361.806C112.367 362.119 113.091 362.275 113.997 362.275ZM114.825 349.212C115.408 349.212 115.856 348.989 116.169 348.541C116.492 348.093 116.653 347.421 116.653 346.525C116.653 345.608 116.502 344.921 116.2 344.462C115.898 344.004 115.44 343.775 114.825 343.775C114.19 343.775 113.716 344.004 113.403 344.462C113.091 344.91 112.934 345.587 112.934 346.494C112.934 347.4 113.091 348.082 113.403 348.541C113.716 348.989 114.19 349.212 114.825 349.212ZM133.2 340.697V358.4H127.091V340.697H133.2ZM130.169 333.572C131.044 333.572 131.804 333.754 132.45 334.119C133.106 334.483 133.434 335.207 133.434 336.291C133.434 337.343 133.106 338.056 132.45 338.431C131.804 338.796 131.044 338.978 130.169 338.978C129.273 338.978 128.507 338.796 127.872 338.431C127.247 338.056 126.934 337.343 126.934 336.291C126.934 335.207 127.247 334.483 127.872 334.119C128.507 333.754 129.273 333.572 130.169 333.572ZM154.684 340.697V358.4H150.075L149.309 356.197H148.95C148.585 356.791 148.122 357.275 147.559 357.65C147.007 358.015 146.393 358.28 145.716 358.447C145.039 358.624 144.335 358.712 143.606 358.712C142.45 358.712 141.403 358.489 140.466 358.041C139.539 357.593 138.799 356.89 138.247 355.931C137.705 354.973 137.434 353.739 137.434 352.228V340.697H143.544V350.369C143.544 351.515 143.705 352.39 144.028 352.994C144.361 353.587 144.903 353.884 145.653 353.884C146.424 353.884 147.018 353.676 147.434 353.259C147.861 352.843 148.158 352.228 148.325 351.416C148.492 350.603 148.575 349.614 148.575 348.447V340.697H154.684ZM180.512 340.384C182.533 340.384 184.075 340.9 185.137 341.931C186.21 342.962 186.747 344.614 186.747 346.884V358.4H180.637V348.775C180.637 347.431 180.455 346.499 180.091 345.978C179.736 345.447 179.205 345.181 178.497 345.181C177.507 345.181 176.82 345.614 176.434 346.478C176.059 347.343 175.872 348.567 175.872 350.15V358.4H169.747V348.775C169.747 347.921 169.669 347.233 169.512 346.712C169.367 346.181 169.143 345.796 168.841 345.556C168.539 345.306 168.158 345.181 167.7 345.181C167.002 345.181 166.455 345.395 166.059 345.822C165.674 346.239 165.403 346.853 165.247 347.666C165.091 348.478 165.012 349.473 165.012 350.65V358.4H158.903V340.697H163.512L164.403 342.884H164.575C164.887 342.405 165.289 341.978 165.778 341.603C166.278 341.228 166.867 340.931 167.544 340.712C168.231 340.494 169.012 340.384 169.887 340.384C171.19 340.384 172.262 340.603 173.106 341.041C173.95 341.478 174.637 342.082 175.169 342.853H175.356C175.919 342.061 176.643 341.452 177.528 341.025C178.414 340.598 179.408 340.384 180.512 340.384ZM189.466 365.572C188.768 365.572 188.158 365.535 187.637 365.462C187.106 365.4 186.648 365.327 186.262 365.244V360.447C186.596 360.509 186.95 360.577 187.325 360.65C187.7 360.733 188.106 360.775 188.544 360.775C189.283 360.775 189.856 360.624 190.262 360.322C190.679 360.02 190.971 359.567 191.137 358.962C191.304 358.358 191.387 357.603 191.387 356.697V335.556H197.591V356.166C197.591 358.457 197.247 360.291 196.559 361.666C195.872 363.041 194.919 364.035 193.7 364.65C192.481 365.265 191.07 365.572 189.466 365.572ZM217.481 351.462C217.481 352.702 217.169 353.879 216.544 354.994C215.919 356.098 214.945 356.994 213.622 357.681C212.309 358.369 210.611 358.712 208.528 358.712C207.486 358.712 206.57 358.666 205.778 358.572C204.997 358.478 204.268 358.327 203.591 358.119C202.914 357.9 202.21 357.619 201.481 357.275V351.775C202.721 352.4 203.971 352.879 205.231 353.212C206.492 353.535 207.632 353.697 208.653 353.697C209.268 353.697 209.768 353.624 210.153 353.478C210.549 353.332 210.841 353.134 211.028 352.884C211.216 352.624 211.309 352.327 211.309 351.994C211.309 351.598 211.169 351.265 210.887 350.994C210.617 350.712 210.179 350.421 209.575 350.119C208.971 349.817 208.174 349.442 207.184 348.994C206.341 348.598 205.575 348.192 204.887 347.775C204.21 347.358 203.627 346.884 203.137 346.353C202.658 345.811 202.289 345.181 202.028 344.462C201.768 343.744 201.637 342.895 201.637 341.916C201.637 340.447 201.997 339.218 202.716 338.228C203.445 337.228 204.455 336.478 205.747 335.978C207.049 335.478 208.549 335.228 210.247 335.228C211.736 335.228 213.075 335.395 214.262 335.728C215.46 336.061 216.533 336.442 217.481 336.869L215.591 341.634C214.611 341.186 213.648 340.832 212.7 340.572C211.752 340.301 210.872 340.166 210.059 340.166C209.528 340.166 209.091 340.233 208.747 340.369C208.414 340.494 208.164 340.666 207.997 340.884C207.841 341.103 207.762 341.353 207.762 341.634C207.762 341.989 207.898 342.306 208.169 342.587C208.45 342.869 208.914 343.176 209.559 343.509C210.216 343.832 211.106 344.254 212.231 344.775C213.346 345.275 214.294 345.817 215.075 346.4C215.856 346.973 216.45 347.666 216.856 348.478C217.273 349.28 217.481 350.275 217.481 351.462ZM52.6219 390.947C52.6219 392.707 52.4083 394.311 51.9812 395.759C51.5646 397.197 50.9083 398.436 50.0125 399.478C49.1167 400.52 47.9656 401.322 46.5594 401.884C45.1531 402.436 43.4708 402.712 41.5125 402.712C39.5958 402.712 37.9344 402.436 36.5281 401.884C35.1323 401.322 33.9812 400.525 33.075 399.494C32.1687 398.452 31.4969 397.207 31.0594 395.759C30.6219 394.311 30.4031 392.697 30.4031 390.916C30.4031 388.541 30.7937 386.478 31.575 384.728C32.3667 382.968 33.5854 381.608 35.2312 380.65C36.8771 379.681 38.9812 379.197 41.5437 379.197C44.1479 379.197 46.2625 379.681 47.8875 380.65C49.5229 381.619 50.7208 382.983 51.4812 384.744C52.2417 386.504 52.6219 388.572 52.6219 390.947ZM36.9031 390.947C36.9031 392.322 37.0594 393.504 37.3719 394.494C37.6844 395.483 38.1792 396.244 38.8562 396.775C39.5333 397.306 40.4187 397.572 41.5125 397.572C42.6479 397.572 43.549 397.306 44.2156 396.775C44.8927 396.244 45.3771 395.483 45.6687 394.494C45.9708 393.504 46.1219 392.322 46.1219 390.947C46.1219 388.884 45.7781 387.254 45.0906 386.056C44.4031 384.858 43.2208 384.259 41.5437 384.259C40.4292 384.259 39.5281 384.53 38.8406 385.072C38.1635 385.614 37.6687 386.384 37.3562 387.384C37.0542 388.384 36.9031 389.572 36.9031 390.947ZM67.075 384.384C67.4083 384.384 67.7573 384.41 68.1219 384.462C68.4865 384.504 68.7573 384.541 68.9344 384.572L68.3875 390.337C68.1896 390.285 67.9344 390.244 67.6219 390.212C67.3094 390.171 66.8719 390.15 66.3094 390.15C65.924 390.15 65.5125 390.186 65.075 390.259C64.6375 390.332 64.2208 390.489 63.825 390.728C63.4396 390.957 63.1219 391.311 62.8719 391.791C62.6219 392.259 62.4969 392.895 62.4969 393.697V402.4H56.3875V384.697H60.9344L61.8875 387.525H62.1844C62.5073 386.942 62.9187 386.416 63.4187 385.947C63.9292 385.468 64.4969 385.087 65.1219 384.806C65.7573 384.525 66.4083 384.384 67.075 384.384ZM77.4656 410.087C74.9552 410.087 73.0177 409.666 71.6531 408.822C70.299 407.989 69.6219 406.785 69.6219 405.212C69.6219 404.16 69.95 403.291 70.6062 402.603C71.2625 401.916 72.2469 401.421 73.5594 401.119C73.0177 400.89 72.5437 400.52 72.1375 400.009C71.7417 399.499 71.5437 398.994 71.5437 398.494C71.5437 397.942 71.6948 397.457 71.9969 397.041C72.299 396.614 72.9292 396.108 73.8875 395.525C72.9708 395.119 72.2469 394.483 71.7156 393.619C71.1948 392.754 70.9344 391.702 70.9344 390.462C70.9344 389.181 71.226 388.087 71.8094 387.181C72.4031 386.275 73.2625 385.582 74.3875 385.103C75.5229 384.624 76.9031 384.384 78.5281 384.384C78.7469 384.384 79.0802 384.405 79.5281 384.447C79.976 384.478 80.4292 384.52 80.8875 384.572C81.3458 384.614 81.7 384.655 81.95 384.697H88.1219V387.65L85.7 388.541C85.8667 388.843 85.9917 389.171 86.075 389.525C86.1583 389.879 86.2 390.254 86.2 390.65C86.2 392.556 85.5281 394.035 84.1844 395.087C82.851 396.14 80.8562 396.666 78.2 396.666C77.5437 396.666 77.0229 396.624 76.6375 396.541C76.5646 396.676 76.5073 396.811 76.4656 396.947C76.4344 397.072 76.4187 397.192 76.4187 397.306C76.4187 397.546 76.5594 397.739 76.8406 397.884C77.1323 398.02 77.4812 398.114 77.8875 398.166C78.3042 398.218 78.7 398.244 79.075 398.244H82.0125C84.0021 398.244 85.4917 398.66 86.4812 399.494C87.4708 400.327 87.9656 401.582 87.9656 403.259C87.9656 405.416 87.0437 407.093 85.2 408.291C83.3667 409.489 80.7885 410.087 77.4656 410.087ZM77.7625 406.275C78.5021 406.275 79.2469 406.207 79.9969 406.072C80.7469 405.947 81.3771 405.739 81.8875 405.447C82.3979 405.155 82.6531 404.77 82.6531 404.291C82.6531 403.926 82.5021 403.65 82.2 403.462C81.8979 403.285 81.5073 403.166 81.0281 403.103C80.549 403.041 80.0437 403.009 79.5125 403.009H77.1375C76.7 403.009 76.299 403.077 75.9344 403.212C75.5802 403.358 75.299 403.551 75.0906 403.791C74.8823 404.03 74.7781 404.301 74.7781 404.603C74.7781 405.103 75.049 405.504 75.5906 405.806C76.1323 406.119 76.8562 406.275 77.7625 406.275ZM78.5906 393.212C79.174 393.212 79.6219 392.989 79.9344 392.541C80.2573 392.093 80.4187 391.421 80.4187 390.525C80.4187 389.608 80.2677 388.921 79.9656 388.462C79.6635 388.004 79.2052 387.775 78.5906 387.775C77.9552 387.775 77.4812 388.004 77.1687 388.462C76.8562 388.91 76.7 389.587 76.7 390.494C76.7 391.4 76.8562 392.082 77.1687 392.541C77.4812 392.989 77.9552 393.212 78.5906 393.212ZM99.4656 384.384C101.705 384.384 103.455 384.942 104.716 386.056C105.976 387.16 106.606 388.739 106.606 390.791V402.4H102.372L101.2 400.056H101.075C100.575 400.681 100.059 401.192 99.5281 401.587C99.0073 401.973 98.4083 402.254 97.7312 402.431C97.0542 402.619 96.226 402.712 95.2469 402.712C94.226 402.712 93.3094 402.504 92.4969 402.087C91.6844 401.671 91.0437 401.041 90.575 400.197C90.1062 399.353 89.8719 398.285 89.8719 396.994C89.8719 395.098 90.5281 393.692 91.8406 392.775C93.1531 391.858 95.0542 391.343 97.5437 391.228L100.497 391.134V390.884C100.497 390.093 100.299 389.53 99.9031 389.197C99.5177 388.864 98.9969 388.697 98.3406 388.697C97.6427 388.697 96.8615 388.822 95.9969 389.072C95.1427 389.311 94.2833 389.624 93.4187 390.009L91.6531 385.978C92.674 385.457 93.8302 385.061 95.1219 384.791C96.4135 384.52 97.8615 384.384 99.4656 384.384ZM100.528 394.494L99.1219 394.556C97.9969 394.598 97.2052 394.796 96.7469 395.15C96.299 395.494 96.075 395.989 96.075 396.634C96.075 397.239 96.2365 397.686 96.5594 397.978C96.8823 398.259 97.3094 398.4 97.8406 398.4C98.5802 398.4 99.2104 398.166 99.7312 397.697C100.262 397.228 100.528 396.619 100.528 395.869V394.494ZM121.841 384.384C123.664 384.384 125.153 384.9 126.309 385.931C127.466 386.962 128.044 388.614 128.044 390.884V402.4H121.934V392.744C121.934 391.567 121.762 390.681 121.419 390.087C121.085 389.483 120.544 389.181 119.794 389.181C118.637 389.181 117.861 389.655 117.466 390.603C117.07 391.541 116.872 392.89 116.872 394.65V402.4H110.762V384.697H115.372L116.2 387.041H116.434C116.809 386.478 117.257 385.999 117.778 385.603C118.299 385.207 118.898 384.905 119.575 384.697C120.252 384.489 121.007 384.384 121.841 384.384ZM138.341 384.697V402.4H132.231V384.697H138.341ZM135.309 377.572C136.184 377.572 136.945 377.754 137.591 378.119C138.247 378.483 138.575 379.207 138.575 380.291C138.575 381.343 138.247 382.056 137.591 382.431C136.945 382.796 136.184 382.978 135.309 382.978C134.414 382.978 133.648 382.796 133.012 382.431C132.387 382.056 132.075 381.343 132.075 380.291C132.075 379.207 132.387 378.483 133.012 378.119C133.648 377.754 134.414 377.572 135.309 377.572ZM155.919 402.4H141.262V398.916L148.591 389.369H141.684V384.697H155.575V388.478L148.559 397.728H155.919V402.4ZM167.466 384.384C169.705 384.384 171.455 384.942 172.716 386.056C173.976 387.16 174.606 388.739 174.606 390.791V402.4H170.372L169.2 400.056H169.075C168.575 400.681 168.059 401.192 167.528 401.587C167.007 401.973 166.408 402.254 165.731 402.431C165.054 402.619 164.226 402.712 163.247 402.712C162.226 402.712 161.309 402.504 160.497 402.087C159.684 401.671 159.044 401.041 158.575 400.197C158.106 399.353 157.872 398.285 157.872 396.994C157.872 395.098 158.528 393.692 159.841 392.775C161.153 391.858 163.054 391.343 165.544 391.228L168.497 391.134V390.884C168.497 390.093 168.299 389.53 167.903 389.197C167.518 388.864 166.997 388.697 166.341 388.697C165.643 388.697 164.861 388.822 163.997 389.072C163.143 389.311 162.283 389.624 161.419 390.009L159.653 385.978C160.674 385.457 161.83 385.061 163.122 384.791C164.414 384.52 165.861 384.384 167.466 384.384ZM168.528 394.494L167.122 394.556C165.997 394.598 165.205 394.796 164.747 395.15C164.299 395.494 164.075 395.989 164.075 396.634C164.075 397.239 164.236 397.686 164.559 397.978C164.882 398.259 165.309 398.4 165.841 398.4C166.58 398.4 167.21 398.166 167.731 397.697C168.262 397.228 168.528 396.619 168.528 395.869V394.494ZM187.434 397.884C187.986 397.884 188.492 397.827 188.95 397.712C189.408 397.598 189.887 397.452 190.387 397.275V401.728C189.721 402.02 189.012 402.254 188.262 402.431C187.523 402.619 186.575 402.712 185.419 402.712C184.273 402.712 183.262 402.535 182.387 402.181C181.512 401.817 180.83 401.192 180.341 400.306C179.861 399.41 179.622 398.166 179.622 396.572V389.275H177.481V386.791L180.2 384.869L181.778 381.15H185.778V384.697H190.122V389.275H185.778V396.166C185.778 396.739 185.924 397.171 186.216 397.462C186.507 397.744 186.914 397.884 187.434 397.884ZM199.622 384.697V402.4H193.512V384.697H199.622ZM196.591 377.572C197.466 377.572 198.226 377.754 198.872 378.119C199.528 378.483 199.856 379.207 199.856 380.291C199.856 381.343 199.528 382.056 198.872 382.431C198.226 382.796 197.466 382.978 196.591 382.978C195.695 382.978 194.929 382.796 194.294 382.431C193.669 382.056 193.356 381.343 193.356 380.291C193.356 379.207 193.669 378.483 194.294 378.119C194.929 377.754 195.695 377.572 196.591 377.572ZM220.794 393.509C220.794 394.989 220.591 396.301 220.184 397.447C219.778 398.593 219.19 399.556 218.419 400.337C217.648 401.119 216.716 401.712 215.622 402.119C214.528 402.515 213.294 402.712 211.919 402.712C210.637 402.712 209.46 402.515 208.387 402.119C207.325 401.712 206.398 401.119 205.606 400.337C204.815 399.556 204.2 398.593 203.762 397.447C203.335 396.301 203.122 394.989 203.122 393.509C203.122 391.551 203.476 389.895 204.184 388.541C204.903 387.186 205.924 386.155 207.247 385.447C208.58 384.739 210.169 384.384 212.012 384.384C213.71 384.384 215.221 384.739 216.544 385.447C217.867 386.155 218.903 387.186 219.653 388.541C220.414 389.895 220.794 391.551 220.794 393.509ZM209.325 393.509C209.325 394.52 209.414 395.374 209.591 396.072C209.768 396.759 210.049 397.285 210.434 397.65C210.83 398.004 211.346 398.181 211.981 398.181C212.617 398.181 213.122 398.004 213.497 397.65C213.872 397.285 214.143 396.759 214.309 396.072C214.486 395.374 214.575 394.52 214.575 393.509C214.575 392.499 214.486 391.655 214.309 390.978C214.143 390.301 213.867 389.791 213.481 389.447C213.106 389.103 212.596 388.931 211.95 388.931C211.023 388.931 210.351 389.317 209.934 390.087C209.528 390.858 209.325 391.999 209.325 393.509ZM235.372 384.384C237.195 384.384 238.684 384.9 239.841 385.931C240.997 386.962 241.575 388.614 241.575 390.884V402.4H235.466V392.744C235.466 391.567 235.294 390.681 234.95 390.087C234.617 389.483 234.075 389.181 233.325 389.181C232.169 389.181 231.393 389.655 230.997 390.603C230.601 391.541 230.403 392.89 230.403 394.65V402.4H224.294V384.697H228.903L229.731 387.041H229.966C230.341 386.478 230.789 385.999 231.309 385.603C231.83 385.207 232.429 384.905 233.106 384.697C233.783 384.489 234.539 384.384 235.372 384.384Z" fill="#2D2926"/>
</g>
<defs>
<filter id="filter0_f_23_25" x="-7.59998" y="-2" width="98.8" height="322" filterUnits="userSpaceOnUse" color-interpolation-filters="sRGB">
<feFlood flood-opacity="0" result="BackgroundImageFix"/>
<feBlend mode="normal" in="SourceGraphic" in2="BackgroundImageFix" result="shape"/>
<feGaussianBlur stdDeviation="2" result="effect1_foregroundBlur_23_25"/>
</filter>
<filter id="filter1_f_23_25" x="83.2" y="-4" width="108" height="326" filterUnits="userSpaceOnUse" color-interpolation-filters="sRGB">
<feFlood flood-opacity="0" result="BackgroundImageFix"/>
<feBlend mode="normal" in="SourceGraphic" in2="BackgroundImageFix" result="shape"/>
<feGaussianBlur stdDeviation="2" result="effect1_foregroundBlur_23_25"/>
</filter>
<filter id="filter2_f_23_25" x="183.2" y="-2" width="98.8" height="322" filterUnits="userSpaceOnUse" color-interpolation-filters="sRGB">
<feFlood flood-opacity="0" result="BackgroundImageFix"/>
<feBlend mode="normal" in="SourceGraphic" in2="BackgroundImageFix" result="shape"/>
<feGaussianBlur stdDeviation="2" result="effect1_foregroundBlur_23_25"/>
</filter>
</defs>
</svg>
