<svg width="498" height="315" viewBox="0 0 498 315" fill="none" xmlns="http://www.w3.org/2000/svg">
<g clip-path="url(#clip0_4_18)">
<mask id="mask0_4_18" style="mask-type:alpha" maskUnits="userSpaceOnUse" x="0" y="0" width="273" height="315">
<path d="M271.4 78.1L137 0.5L136.1 0L135.2 0.5L1.6 77.7L0.9 78.1L0 78.6V235.8L0.9 236.3L135.3 313.9L136.2 314.4L137.1 313.9L269.7 237.4L271.5 236.4L272.4 235.9V78.6L271.4 78.1ZM122.7 20.1L89.8 77H24.1L122.7 20.1ZM84.4 86.4L69 113.1L22.8 86.4H84.4ZM72.4 125.8L126.7 157.2L72.4 188.6L54.3 157.2L72.4 125.8ZM64.4 121.2L49 147.9L18.1 94.5L64.4 121.2ZM10.7 100.3L43.6 157.2L10.7 214.1V100.3ZM48.9 166.6L64.3 193.3L18.1 220L48.9 166.6ZM69 201.3L84.4 228H22.8L69 201.3ZM24.1 237.4H89.8L122.7 294.3L24.1 237.4ZM131.5 290.8L100.7 237.4H131.5V290.8ZM131.5 228H95.2L77.1 196.6L131.4 165.2V228H131.5ZM131.5 149.1L77.2 117.7L95.3 86.3H131.5V149.1ZM131.5 77H100.7L131.5 23.6V77ZM207.9 121.2L254.1 94.5L223.3 147.9L207.9 121.2ZM217.9 157.2L199.8 188.6L145.5 157.2L199.8 125.8L217.9 157.2ZM203.2 113.1L187.8 86.4H249.4L203.2 113.1ZM248.1 77H182.4L149.6 20.1L248.1 77ZM140.8 23.6L171.6 77H140.8V23.6ZM140.8 86.4H177L195.1 117.8L140.8 149.2V86.4ZM140.8 165.3L195.1 196.7L177 228H140.8V165.3ZM140.8 237.4H171.6L140.8 290.8V237.4ZM149.6 294.3L182.4 237.4H248.1L149.6 294.3ZM187.8 228L203.2 201.3L249.4 228H187.8ZM207.9 193.2L223.3 166.5L254.1 219.9L207.9 193.2ZM261.6 214.1L228.7 157.2L261.6 100.3V214.1Z" fill="black"/>
</mask>
<g mask="url(#mask0_4_18)">
<g filter="url(#filter0_f_4_18)">
<rect x="-3.59999" y="2" width="90.8" height="314" fill="black"/>
</g>
<g filter="url(#filter1_f_4_18)">
<rect x="87.2" width="100" height="318" fill="#FFD600"/>
</g>
<g filter="url(#filter2_f_4_18)">
<rect x="187.2" y="2" width="90.8" height="314" fill="#FF0000"/>
</g>
</g>
<path d="M284.869 124.356H292.837C296.14 124.356 298.494 124.846 299.9 125.825C301.306 126.804 302.009 128.21 302.009 130.044C302.009 131.044 301.827 131.893 301.462 132.591C301.108 133.289 300.655 133.841 300.103 134.247C299.561 134.653 299.004 134.929 298.431 135.075V135.231C299.056 135.388 299.676 135.648 300.291 136.013C300.916 136.367 301.431 136.903 301.837 137.622C302.254 138.33 302.462 139.294 302.462 140.513C302.462 141.898 302.108 143.091 301.4 144.091C300.702 145.091 299.702 145.861 298.4 146.403C297.098 146.934 295.551 147.2 293.759 147.2H284.869V124.356ZM291.041 133.122H292.9C293.921 133.122 294.64 132.914 295.056 132.497C295.473 132.07 295.681 131.554 295.681 130.95C295.681 130.325 295.442 129.851 294.962 129.528C294.494 129.195 293.765 129.028 292.775 129.028H291.041V133.122ZM291.041 137.638V142.434H293.212C294.285 142.434 295.035 142.205 295.462 141.747C295.89 141.278 296.103 140.695 296.103 139.997C296.103 139.591 296.009 139.21 295.822 138.856C295.645 138.492 295.337 138.2 294.9 137.981C294.462 137.752 293.858 137.638 293.087 137.638H291.041ZM314.041 129.184C315.759 129.184 317.244 129.486 318.494 130.091C319.744 130.684 320.707 131.58 321.384 132.778C322.061 133.976 322.4 135.476 322.4 137.278V139.997H311.478C311.53 140.924 311.874 141.684 312.509 142.278C313.155 142.872 314.103 143.169 315.353 143.169C316.457 143.169 317.468 143.059 318.384 142.841C319.311 142.622 320.265 142.283 321.244 141.825V146.216C320.39 146.664 319.457 146.992 318.447 147.2C317.436 147.408 316.16 147.513 314.619 147.513C312.837 147.513 311.244 147.195 309.837 146.559C308.431 145.924 307.322 144.94 306.509 143.606C305.707 142.273 305.306 140.559 305.306 138.466C305.306 136.341 305.671 134.596 306.4 133.231C307.129 131.856 308.15 130.841 309.462 130.184C310.775 129.518 312.301 129.184 314.041 129.184ZM314.259 133.341C313.541 133.341 312.936 133.57 312.447 134.028C311.968 134.476 311.686 135.184 311.603 136.153H316.853C316.843 135.632 316.739 135.158 316.541 134.731C316.343 134.304 316.051 133.966 315.666 133.716C315.291 133.466 314.822 133.341 314.259 133.341ZM331.962 147.2H325.853V122.888H331.962V147.2ZM342.244 154.888C339.733 154.888 337.796 154.466 336.431 153.622C335.077 152.789 334.4 151.585 334.4 150.013C334.4 148.96 334.728 148.091 335.384 147.403C336.041 146.716 337.025 146.221 338.337 145.919C337.796 145.69 337.322 145.32 336.916 144.809C336.52 144.299 336.322 143.794 336.322 143.294C336.322 142.742 336.473 142.257 336.775 141.841C337.077 141.414 337.707 140.908 338.666 140.325C337.749 139.919 337.025 139.283 336.494 138.419C335.973 137.554 335.712 136.502 335.712 135.263C335.712 133.981 336.004 132.888 336.587 131.981C337.181 131.075 338.041 130.382 339.166 129.903C340.301 129.424 341.681 129.184 343.306 129.184C343.525 129.184 343.858 129.205 344.306 129.247C344.754 129.278 345.207 129.32 345.666 129.372C346.124 129.414 346.478 129.455 346.728 129.497H352.9V132.45L350.478 133.341C350.645 133.643 350.77 133.971 350.853 134.325C350.936 134.679 350.978 135.054 350.978 135.45C350.978 137.356 350.306 138.835 348.962 139.888C347.629 140.94 345.634 141.466 342.978 141.466C342.322 141.466 341.801 141.424 341.416 141.341C341.343 141.476 341.285 141.611 341.244 141.747C341.212 141.872 341.197 141.992 341.197 142.106C341.197 142.346 341.337 142.539 341.619 142.684C341.91 142.82 342.259 142.914 342.666 142.966C343.082 143.018 343.478 143.044 343.853 143.044H346.791C348.78 143.044 350.27 143.46 351.259 144.294C352.249 145.127 352.744 146.382 352.744 148.059C352.744 150.216 351.822 151.893 349.978 153.091C348.145 154.289 345.567 154.888 342.244 154.888ZM342.541 151.075C343.28 151.075 344.025 151.007 344.775 150.872C345.525 150.747 346.155 150.539 346.666 150.247C347.176 149.955 347.431 149.57 347.431 149.091C347.431 148.726 347.28 148.45 346.978 148.263C346.676 148.085 346.285 147.966 345.806 147.903C345.327 147.841 344.822 147.809 344.291 147.809H341.916C341.478 147.809 341.077 147.877 340.712 148.013C340.358 148.158 340.077 148.351 339.869 148.591C339.66 148.83 339.556 149.101 339.556 149.403C339.556 149.903 339.827 150.304 340.369 150.606C340.91 150.919 341.634 151.075 342.541 151.075ZM343.369 138.013C343.952 138.013 344.4 137.789 344.712 137.341C345.035 136.893 345.197 136.221 345.197 135.325C345.197 134.408 345.046 133.721 344.744 133.263C344.442 132.804 343.983 132.575 343.369 132.575C342.733 132.575 342.259 132.804 341.947 133.263C341.634 133.71 341.478 134.388 341.478 135.294C341.478 136.2 341.634 136.882 341.947 137.341C342.259 137.789 342.733 138.013 343.369 138.013ZM372.822 129.497V147.2H368.212L367.447 144.997H367.087C366.723 145.591 366.259 146.075 365.697 146.45C365.145 146.815 364.53 147.08 363.853 147.247C363.176 147.424 362.473 147.513 361.744 147.513C360.587 147.513 359.541 147.289 358.603 146.841C357.676 146.393 356.936 145.69 356.384 144.731C355.843 143.773 355.572 142.539 355.572 141.028V129.497H361.681V139.169C361.681 140.315 361.843 141.19 362.166 141.794C362.499 142.388 363.041 142.684 363.791 142.684C364.561 142.684 365.155 142.476 365.572 142.059C365.999 141.643 366.296 141.028 366.462 140.216C366.629 139.403 366.712 138.414 366.712 137.247V129.497H372.822ZM383.181 129.497V147.2H377.072V129.497H383.181ZM380.15 122.372C381.025 122.372 381.785 122.554 382.431 122.919C383.087 123.283 383.416 124.007 383.416 125.091C383.416 126.143 383.087 126.856 382.431 127.231C381.785 127.596 381.025 127.778 380.15 127.778C379.254 127.778 378.489 127.596 377.853 127.231C377.228 126.856 376.916 126.143 376.916 125.091C376.916 124.007 377.228 123.283 377.853 122.919C378.489 122.554 379.254 122.372 380.15 122.372ZM409.056 129.184C411.077 129.184 412.619 129.7 413.681 130.731C414.754 131.763 415.291 133.414 415.291 135.684V147.2H409.181V137.575C409.181 136.231 408.999 135.299 408.634 134.778C408.28 134.247 407.749 133.981 407.041 133.981C406.051 133.981 405.364 134.414 404.978 135.278C404.603 136.143 404.416 137.367 404.416 138.95V147.2H398.291V137.575C398.291 136.721 398.212 136.033 398.056 135.513C397.91 134.981 397.686 134.596 397.384 134.356C397.082 134.106 396.702 133.981 396.244 133.981C395.546 133.981 394.999 134.195 394.603 134.622C394.218 135.039 393.947 135.653 393.791 136.466C393.634 137.278 393.556 138.273 393.556 139.45V147.2H387.447V129.497H392.056L392.947 131.684H393.119C393.431 131.205 393.832 130.778 394.322 130.403C394.822 130.028 395.41 129.731 396.087 129.513C396.775 129.294 397.556 129.184 398.431 129.184C399.733 129.184 400.806 129.403 401.65 129.841C402.494 130.278 403.181 130.882 403.712 131.653H403.9C404.462 130.861 405.186 130.252 406.072 129.825C406.957 129.398 407.952 129.184 409.056 129.184ZM418.009 154.372C417.311 154.372 416.702 154.335 416.181 154.263C415.65 154.2 415.192 154.127 414.806 154.044V149.247C415.14 149.309 415.494 149.377 415.869 149.45C416.244 149.533 416.65 149.575 417.087 149.575C417.827 149.575 418.4 149.424 418.806 149.122C419.223 148.82 419.515 148.367 419.681 147.763C419.848 147.158 419.931 146.403 419.931 145.497V124.356H426.134V144.966C426.134 147.257 425.791 149.091 425.103 150.466C424.416 151.841 423.462 152.835 422.244 153.45C421.025 154.065 419.614 154.372 418.009 154.372ZM446.025 140.263C446.025 141.502 445.712 142.679 445.087 143.794C444.462 144.898 443.489 145.794 442.166 146.481C440.853 147.169 439.155 147.513 437.072 147.513C436.03 147.513 435.114 147.466 434.322 147.372C433.541 147.278 432.811 147.127 432.134 146.919C431.457 146.7 430.754 146.419 430.025 146.075V140.575C431.265 141.2 432.515 141.679 433.775 142.013C435.035 142.335 436.176 142.497 437.197 142.497C437.811 142.497 438.311 142.424 438.697 142.278C439.093 142.132 439.384 141.934 439.572 141.684C439.759 141.424 439.853 141.127 439.853 140.794C439.853 140.398 439.712 140.065 439.431 139.794C439.16 139.513 438.723 139.221 438.119 138.919C437.515 138.617 436.718 138.242 435.728 137.794C434.884 137.398 434.119 136.992 433.431 136.575C432.754 136.158 432.171 135.684 431.681 135.153C431.202 134.611 430.832 133.981 430.572 133.263C430.311 132.544 430.181 131.695 430.181 130.716C430.181 129.247 430.541 128.018 431.259 127.028C431.989 126.028 432.999 125.278 434.291 124.778C435.593 124.278 437.093 124.028 438.791 124.028C440.28 124.028 441.619 124.195 442.806 124.528C444.004 124.861 445.077 125.242 446.025 125.669L444.134 130.434C443.155 129.986 442.192 129.632 441.244 129.372C440.296 129.101 439.416 128.966 438.603 128.966C438.072 128.966 437.634 129.033 437.291 129.169C436.957 129.294 436.707 129.466 436.541 129.684C436.384 129.903 436.306 130.153 436.306 130.434C436.306 130.789 436.442 131.106 436.712 131.388C436.994 131.669 437.457 131.976 438.103 132.309C438.759 132.632 439.65 133.054 440.775 133.575C441.89 134.075 442.837 134.617 443.619 135.2C444.4 135.773 444.994 136.466 445.4 137.278C445.817 138.08 446.025 139.075 446.025 140.263ZM306.244 179.747C306.244 181.507 306.03 183.111 305.603 184.559C305.186 185.997 304.53 187.236 303.634 188.278C302.739 189.32 301.587 190.122 300.181 190.684C298.775 191.236 297.093 191.513 295.134 191.513C293.218 191.513 291.556 191.236 290.15 190.684C288.754 190.122 287.603 189.325 286.697 188.294C285.791 187.252 285.119 186.007 284.681 184.559C284.244 183.111 284.025 181.497 284.025 179.716C284.025 177.341 284.416 175.278 285.197 173.528C285.989 171.768 287.207 170.408 288.853 169.45C290.499 168.481 292.603 167.997 295.166 167.997C297.77 167.997 299.884 168.481 301.509 169.45C303.145 170.419 304.343 171.783 305.103 173.544C305.864 175.304 306.244 177.372 306.244 179.747ZM290.525 179.747C290.525 181.122 290.681 182.304 290.994 183.294C291.306 184.283 291.801 185.044 292.478 185.575C293.155 186.106 294.041 186.372 295.134 186.372C296.27 186.372 297.171 186.106 297.837 185.575C298.515 185.044 298.999 184.283 299.291 183.294C299.593 182.304 299.744 181.122 299.744 179.747C299.744 177.684 299.4 176.054 298.712 174.856C298.025 173.658 296.843 173.059 295.166 173.059C294.051 173.059 293.15 173.33 292.462 173.872C291.785 174.414 291.291 175.184 290.978 176.184C290.676 177.184 290.525 178.372 290.525 179.747ZM320.697 173.184C321.03 173.184 321.379 173.21 321.744 173.263C322.108 173.304 322.379 173.341 322.556 173.372L322.009 179.138C321.811 179.085 321.556 179.044 321.244 179.013C320.931 178.971 320.494 178.95 319.931 178.95C319.546 178.95 319.134 178.986 318.697 179.059C318.259 179.132 317.843 179.289 317.447 179.528C317.061 179.757 316.744 180.111 316.494 180.591C316.244 181.059 316.119 181.695 316.119 182.497V191.2H310.009V173.497H314.556L315.509 176.325H315.806C316.129 175.742 316.541 175.216 317.041 174.747C317.551 174.268 318.119 173.888 318.744 173.606C319.379 173.325 320.03 173.184 320.697 173.184ZM331.087 198.888C328.577 198.888 326.64 198.466 325.275 197.622C323.921 196.789 323.244 195.585 323.244 194.013C323.244 192.96 323.572 192.091 324.228 191.403C324.884 190.716 325.869 190.221 327.181 189.919C326.64 189.69 326.166 189.32 325.759 188.809C325.364 188.299 325.166 187.794 325.166 187.294C325.166 186.742 325.317 186.257 325.619 185.841C325.921 185.414 326.551 184.908 327.509 184.325C326.593 183.919 325.869 183.283 325.337 182.419C324.817 181.554 324.556 180.502 324.556 179.263C324.556 177.981 324.848 176.888 325.431 175.981C326.025 175.075 326.884 174.382 328.009 173.903C329.145 173.424 330.525 173.184 332.15 173.184C332.369 173.184 332.702 173.205 333.15 173.247C333.598 173.278 334.051 173.32 334.509 173.372C334.968 173.414 335.322 173.455 335.572 173.497H341.744V176.45L339.322 177.341C339.489 177.643 339.614 177.971 339.697 178.325C339.78 178.679 339.822 179.054 339.822 179.45C339.822 181.356 339.15 182.835 337.806 183.888C336.473 184.94 334.478 185.466 331.822 185.466C331.166 185.466 330.645 185.424 330.259 185.341C330.186 185.476 330.129 185.611 330.087 185.747C330.056 185.872 330.041 185.992 330.041 186.106C330.041 186.346 330.181 186.539 330.462 186.684C330.754 186.82 331.103 186.914 331.509 186.966C331.926 187.018 332.322 187.044 332.697 187.044H335.634C337.624 187.044 339.114 187.46 340.103 188.294C341.093 189.127 341.587 190.382 341.587 192.059C341.587 194.216 340.666 195.893 338.822 197.091C336.989 198.289 334.41 198.888 331.087 198.888ZM331.384 195.075C332.124 195.075 332.869 195.007 333.619 194.872C334.369 194.747 334.999 194.539 335.509 194.247C336.02 193.955 336.275 193.57 336.275 193.091C336.275 192.726 336.124 192.45 335.822 192.263C335.52 192.085 335.129 191.966 334.65 191.903C334.171 191.841 333.666 191.809 333.134 191.809H330.759C330.322 191.809 329.921 191.877 329.556 192.013C329.202 192.158 328.921 192.351 328.712 192.591C328.504 192.83 328.4 193.101 328.4 193.403C328.4 193.903 328.671 194.304 329.212 194.606C329.754 194.919 330.478 195.075 331.384 195.075ZM332.212 182.013C332.796 182.013 333.244 181.789 333.556 181.341C333.879 180.893 334.041 180.221 334.041 179.325C334.041 178.408 333.89 177.721 333.587 177.263C333.285 176.804 332.827 176.575 332.212 176.575C331.577 176.575 331.103 176.804 330.791 177.263C330.478 177.71 330.322 178.388 330.322 179.294C330.322 180.2 330.478 180.882 330.791 181.341C331.103 181.789 331.577 182.013 332.212 182.013ZM353.087 173.184C355.327 173.184 357.077 173.742 358.337 174.856C359.598 175.96 360.228 177.539 360.228 179.591V191.2H355.994L354.822 188.856H354.697C354.197 189.481 353.681 189.992 353.15 190.388C352.629 190.773 352.03 191.054 351.353 191.231C350.676 191.419 349.848 191.513 348.869 191.513C347.848 191.513 346.931 191.304 346.119 190.888C345.306 190.471 344.666 189.841 344.197 188.997C343.728 188.153 343.494 187.085 343.494 185.794C343.494 183.898 344.15 182.492 345.462 181.575C346.775 180.658 348.676 180.143 351.166 180.028L354.119 179.934V179.684C354.119 178.893 353.921 178.33 353.525 177.997C353.14 177.664 352.619 177.497 351.962 177.497C351.265 177.497 350.483 177.622 349.619 177.872C348.765 178.111 347.905 178.424 347.041 178.809L345.275 174.778C346.296 174.257 347.452 173.861 348.744 173.591C350.035 173.32 351.483 173.184 353.087 173.184ZM354.15 183.294L352.744 183.356C351.619 183.398 350.827 183.596 350.369 183.95C349.921 184.294 349.697 184.789 349.697 185.434C349.697 186.039 349.858 186.486 350.181 186.778C350.504 187.059 350.931 187.2 351.462 187.2C352.202 187.2 352.832 186.966 353.353 186.497C353.884 186.028 354.15 185.419 354.15 184.669V183.294ZM375.462 173.184C377.285 173.184 378.775 173.7 379.931 174.731C381.087 175.763 381.666 177.414 381.666 179.684V191.2H375.556V181.544C375.556 180.367 375.384 179.481 375.041 178.888C374.707 178.283 374.166 177.981 373.416 177.981C372.259 177.981 371.483 178.455 371.087 179.403C370.692 180.341 370.494 181.69 370.494 183.45V191.2H364.384V173.497H368.994L369.822 175.841H370.056C370.431 175.278 370.879 174.799 371.4 174.403C371.921 174.007 372.52 173.705 373.197 173.497C373.874 173.289 374.629 173.184 375.462 173.184ZM391.962 173.497V191.2H385.853V173.497H391.962ZM388.931 166.372C389.806 166.372 390.567 166.554 391.212 166.919C391.869 167.283 392.197 168.007 392.197 169.091C392.197 170.143 391.869 170.856 391.212 171.231C390.567 171.596 389.806 171.778 388.931 171.778C388.035 171.778 387.27 171.596 386.634 171.231C386.009 170.856 385.697 170.143 385.697 169.091C385.697 168.007 386.009 167.283 386.634 166.919C387.27 166.554 388.035 166.372 388.931 166.372ZM409.541 191.2H394.884V187.716L402.212 178.169H395.306V173.497H409.197V177.278L402.181 186.528H409.541V191.2ZM421.087 173.184C423.327 173.184 425.077 173.742 426.337 174.856C427.598 175.96 428.228 177.539 428.228 179.591V191.2H423.994L422.822 188.856H422.697C422.197 189.481 421.681 189.992 421.15 190.388C420.629 190.773 420.03 191.054 419.353 191.231C418.676 191.419 417.848 191.513 416.869 191.513C415.848 191.513 414.931 191.304 414.119 190.888C413.306 190.471 412.666 189.841 412.197 188.997C411.728 188.153 411.494 187.085 411.494 185.794C411.494 183.898 412.15 182.492 413.462 181.575C414.775 180.658 416.676 180.143 419.166 180.028L422.119 179.934V179.684C422.119 178.893 421.921 178.33 421.525 177.997C421.14 177.664 420.619 177.497 419.962 177.497C419.265 177.497 418.483 177.622 417.619 177.872C416.765 178.111 415.905 178.424 415.041 178.809L413.275 174.778C414.296 174.257 415.452 173.861 416.744 173.591C418.035 173.32 419.483 173.184 421.087 173.184ZM422.15 183.294L420.744 183.356C419.619 183.398 418.827 183.596 418.369 183.95C417.921 184.294 417.697 184.789 417.697 185.434C417.697 186.039 417.858 186.486 418.181 186.778C418.504 187.059 418.931 187.2 419.462 187.2C420.202 187.2 420.832 186.966 421.353 186.497C421.884 186.028 422.15 185.419 422.15 184.669V183.294ZM441.056 186.684C441.608 186.684 442.114 186.627 442.572 186.513C443.03 186.398 443.509 186.252 444.009 186.075V190.528C443.343 190.82 442.634 191.054 441.884 191.231C441.145 191.419 440.197 191.513 439.041 191.513C437.895 191.513 436.884 191.335 436.009 190.981C435.134 190.617 434.452 189.992 433.962 189.106C433.483 188.21 433.244 186.966 433.244 185.372V178.075H431.103V175.591L433.822 173.669L435.4 169.95H439.4V173.497H443.744V178.075H439.4V184.966C439.4 185.539 439.546 185.971 439.837 186.263C440.129 186.544 440.535 186.684 441.056 186.684ZM453.244 173.497V191.2H447.134V173.497H453.244ZM450.212 166.372C451.087 166.372 451.848 166.554 452.494 166.919C453.15 167.283 453.478 168.007 453.478 169.091C453.478 170.143 453.15 170.856 452.494 171.231C451.848 171.596 451.087 171.778 450.212 171.778C449.317 171.778 448.551 171.596 447.916 171.231C447.291 170.856 446.978 170.143 446.978 169.091C446.978 168.007 447.291 167.283 447.916 166.919C448.551 166.554 449.317 166.372 450.212 166.372ZM474.416 182.309C474.416 183.789 474.212 185.101 473.806 186.247C473.4 187.393 472.811 188.356 472.041 189.138C471.27 189.919 470.337 190.513 469.244 190.919C468.15 191.315 466.916 191.513 465.541 191.513C464.259 191.513 463.082 191.315 462.009 190.919C460.947 190.513 460.02 189.919 459.228 189.138C458.436 188.356 457.822 187.393 457.384 186.247C456.957 185.101 456.744 183.789 456.744 182.309C456.744 180.351 457.098 178.695 457.806 177.341C458.525 175.986 459.546 174.955 460.869 174.247C462.202 173.539 463.791 173.184 465.634 173.184C467.332 173.184 468.843 173.539 470.166 174.247C471.489 174.955 472.525 175.986 473.275 177.341C474.035 178.695 474.416 180.351 474.416 182.309ZM462.947 182.309C462.947 183.32 463.035 184.174 463.212 184.872C463.39 185.559 463.671 186.085 464.056 186.45C464.452 186.804 464.968 186.981 465.603 186.981C466.239 186.981 466.744 186.804 467.119 186.45C467.494 186.085 467.765 185.559 467.931 184.872C468.108 184.174 468.197 183.32 468.197 182.309C468.197 181.299 468.108 180.455 467.931 179.778C467.765 179.101 467.489 178.591 467.103 178.247C466.728 177.903 466.218 177.731 465.572 177.731C464.645 177.731 463.973 178.117 463.556 178.888C463.15 179.658 462.947 180.799 462.947 182.309ZM488.994 173.184C490.817 173.184 492.306 173.7 493.462 174.731C494.619 175.763 495.197 177.414 495.197 179.684V191.2H489.087V181.544C489.087 180.367 488.916 179.481 488.572 178.888C488.239 178.283 487.697 177.981 486.947 177.981C485.791 177.981 485.015 178.455 484.619 179.403C484.223 180.341 484.025 181.69 484.025 183.45V191.2H477.916V173.497H482.525L483.353 175.841H483.587C483.962 175.278 484.41 174.799 484.931 174.403C485.452 174.007 486.051 173.705 486.728 173.497C487.405 173.289 488.16 173.184 488.994 173.184Z" fill="white"/>
</g>
<defs>
<filter id="filter0_f_4_18" x="-7.59999" y="-2" width="98.8" height="322" filterUnits="userSpaceOnUse" color-interpolation-filters="sRGB">
<feFlood flood-opacity="0" result="BackgroundImageFix"/>
<feBlend mode="normal" in="SourceGraphic" in2="BackgroundImageFix" result="shape"/>
<feGaussianBlur stdDeviation="2" result="effect1_foregroundBlur_4_18"/>
</filter>
<filter id="filter1_f_4_18" x="83.2" y="-4" width="108" height="326" filterUnits="userSpaceOnUse" color-interpolation-filters="sRGB">
<feFlood flood-opacity="0" result="BackgroundImageFix"/>
<feBlend mode="normal" in="SourceGraphic" in2="BackgroundImageFix" result="shape"/>
<feGaussianBlur stdDeviation="2" result="effect1_foregroundBlur_4_18"/>
</filter>
<filter id="filter2_f_4_18" x="183.2" y="-2" width="98.8" height="322" filterUnits="userSpaceOnUse" color-interpolation-filters="sRGB">
<feFlood flood-opacity="0" result="BackgroundImageFix"/>
<feBlend mode="normal" in="SourceGraphic" in2="BackgroundImageFix" result="shape"/>
<feGaussianBlur stdDeviation="2" result="effect1_foregroundBlur_4_18"/>
</filter>
<clipPath id="clip0_4_18">
<rect width="497.4" height="314.4" fill="white"/>
</clipPath>
</defs>
</svg>
